<?xml version="1.0" encoding="UTF-8" standalone="no"?><!DOCTYPE svg PUBLIC "-//W3C//DTD SVG 1.1//EN" "http://www.w3.org/Graphics/SVG/1.1/DTD/svg11.dtd"><svg width="100%" height="100%" viewBox="0 0 77 77" version="1.1" xmlns="http://www.w3.org/2000/svg" xmlns:xlink="http://www.w3.org/1999/xlink" xml:space="preserve" xmlns:serif="http://www.serif.com/" style="fill-rule:evenodd;clip-rule:evenodd;stroke-linejoin:round;stroke-miterlimit:1.41421;"><g><path d="M13.713,41.222c-3.212,0 -5.816,-2.604 -5.816,-5.815c0,-3.211 2.604,-5.814 5.816,-5.814c3.21,0 5.814,2.603 5.814,5.814c0,3.211 -2.604,5.815 -5.814,5.815Zm0,-14.263c-5.206,0 -9.427,4.22 -9.427,9.425c0,5.207 9.427,13.199 9.427,13.199c0,0 9.425,-7.992 9.425,-13.199c0,-5.205 -4.22,-9.425 -9.425,-9.425Z" style="fill:#ffc906;fill-rule:nonzero;"/><path d="M37.422,41.023c5.101,0 8.812,-7.422 9.974,-13.453c1.159,-6.031 0.579,-15.773 -9.974,-15.773c-10.555,0 -11.135,9.742 -9.975,15.773c1.159,6.031 4.871,13.453 9.975,13.453Z" style="fill:#fed9b9;fill-rule:nonzero;"/><path d="M27.447,27.57c-0.194,-1.012 -0.337,-2.128 -0.394,-3.286l-0.031,-0.078c-0.676,-0.871 -3.401,-1.217 -2.182,3.247c1.216,4.466 2.886,5.32 3.558,3.702c-0.406,-1.203 -0.725,-2.421 -0.951,-3.585Z" style="fill:#fed9b9;fill-rule:nonzero;"/><path d="M47.348,27.57c0.193,-1.012 0.338,-2.128 0.394,-3.286l0.03,-0.078c0.677,-0.871 3.403,-1.217 2.185,3.247c-1.219,4.466 -2.889,5.32 -3.56,3.702c0.406,-1.203 0.726,-2.421 0.951,-3.585Z" style="fill:#ffe3c3;fill-rule:nonzero;"/><path d="M37.422,40.326c-1.769,0 -3.369,-0.892 -4.755,-2.307l0,9.554l4.786,4.122l4.724,-4.122l0,-9.554c-1.388,1.415 -2.988,2.307 -4.755,2.307Z" style="fill:#fed9b9;fill-rule:nonzero;"/><path d="M47.396,27.57c1.159,-6.031 0.579,-15.773 -9.974,-15.773l0,29.226c5.101,0 8.812,-7.422 9.974,-13.453Z" style="fill:#ffe3c3;fill-rule:nonzero;"/><path d="M44.205,13.103c0,1.873 -3.037,3.391 -6.783,3.391c-3.748,0 -6.785,-1.518 -6.785,-3.391c0,-1.873 3.037,-3.393 6.785,-3.393c3.746,0 6.783,1.52 6.783,3.393Z" style="fill:#955222;fill-rule:nonzero;"/><path d="M55.974,50.298l-10.206,-3.477l-3.537,-2.03l-2.846,2.159l-0.033,0.069l-1.042,2.214l-1.769,0l-1.121,-2.214l-0.033,-0.069l-2.711,-2.159l-3.537,2.03l-10.205,3.477l-4,19.426l45.037,0l-3.997,-19.426Z" style="fill:#c72026;fill-rule:nonzero;"/><path d="M39.385,46.95l0.758,-0.575l-0.758,0.575Z" style="fill:#fed9b9;fill-rule:nonzero;"/><path d="M45.768,46.821l-0.778,-0.446l0.778,0.446Z" style="fill:#f5cdcd;fill-rule:nonzero;"/><path d="M59.971,69.724l-22.518,0l0,-20.491l0.857,0l1.042,-2.214l0.033,-0.069l0.758,-0.575l4.847,0l0.778,0.446l10.206,3.477l3.997,19.426Z" style="fill:#d12026;fill-rule:nonzero;"/><path d="M31.909,15.214c-1.399,0.224 -2.267,1.697 -2.81,3.504l-0.035,0.102c-0.421,1.445 -0.636,3.095 -0.746,4.488c-0.013,0.218 -0.028,0.433 -0.041,0.638l0,0.027c-0.089,1.419 -0.068,2.438 -0.068,2.438l-0.951,0c-0.061,-0.822 -0.19,-1.4 -0.339,-1.813l-0.04,-0.11c-0.068,-0.175 -0.15,-0.319 -0.226,-0.426c-0.42,-0.606 -0.889,-0.388 -0.889,-0.388c-0.034,-0.292 -0.06,-0.583 -0.088,-0.862l0,-0.014l0.32,-1.846l-0.415,-0.34c0.007,-7.497 3.843,-8.765 5.249,-7.91l1.079,2.512Z" style="fill:#955222;fill-rule:nonzero;"/><path d="M48.837,20.952l0.333,1.961c-0.02,0.252 -0.049,0.503 -0.074,0.761c0,0 -0.477,-0.218 -0.89,0.401c-0.083,0.109 -0.157,0.25 -0.226,0.428l-0.04,0.109c-0.149,0.407 -0.27,0.991 -0.332,1.799l-0.951,0c0,0 0.02,-1.011 -0.061,-2.425l-0.006,-0.026c-0.008,-0.205 -0.027,-0.416 -0.041,-0.632c-0.11,-1.384 -0.326,-3.036 -0.748,-4.489l-0.033,-0.107c-0.543,-1.813 -1.412,-3.294 -2.818,-3.518l1.079,-2.512c1.414,-0.855 5.235,0.413 5.249,7.883l-0.441,0.367Z" style="fill:#955222;fill-rule:nonzero;"/><path d="M18.924,50.3l1.158,19.426l-5.158,0l4,-19.426Z" style="fill:#db1f26;fill-rule:nonzero;"/><path d="M55.958,50.3l-1.159,19.426l5.162,0l-4.003,-19.426Z" style="fill:#db1f26;fill-rule:nonzero;"/><path d="M35.385,46.948l-3.127,-2.554l-3.127,2.224l3.801,4.15l2.453,-3.82Z" style="fill:#db1f26;fill-rule:nonzero;"/><path d="M42.177,38.714c-1.388,1.416 -2.988,2.309 -4.755,2.309c-1.769,0 -3.369,-0.893 -4.755,-2.309l0,1.381c1.386,1.416 2.986,2.308 4.755,2.308c1.767,0 3.367,-0.892 4.755,-2.308l0,-1.381Z" style="fill:#f6c9ab;fill-rule:nonzero;"/><rect x="36.541" y="49.233" width="1.749" height="8.025" style="fill:#db1f26;fill-rule:nonzero;"/><path d="M37.762,50.71c0,0.186 -0.155,0.339 -0.34,0.339c-0.188,0 -0.34,-0.153 -0.34,-0.339c0,-0.188 0.152,-0.34 0.34,-0.34c0.185,0 0.34,0.152 0.34,0.34Z" style="fill:#fff;fill-rule:nonzero;"/><path d="M37.762,53.245c0,0.188 -0.155,0.34 -0.34,0.34c-0.188,0 -0.34,-0.152 -0.34,-0.34c0,-0.188 0.152,-0.34 0.34,-0.34c0.185,0 0.34,0.152 0.34,0.34Z" style="fill:#fff;fill-rule:nonzero;"/><path d="M37.762,55.781c0,0.187 -0.155,0.339 -0.34,0.339c-0.188,0 -0.34,-0.152 -0.34,-0.339c0,-0.188 0.152,-0.34 0.34,-0.34c0.185,0 0.34,0.152 0.34,0.34Z" style="fill:#fff;fill-rule:nonzero;"/><path d="M39.393,46.948l3.127,-2.554l3.127,2.224l-3.803,4.15l-2.451,-3.82Z" style="fill:#db1f26;fill-rule:nonzero;"/><rect x="23.579" y="58.823" width="6.908" height="3.678" style="fill:#db1f26;fill-rule:nonzero;"/><path d="M50.617,19.483c0.022,0.43 -0.18,0.841 -0.545,1.108l-0.426,0.316l-0.456,0.342l-0.155,0.114l-0.23,-0.506c-0.602,-0.565 -1.539,-1.115 -2.743,-1.577c-1.723,-0.676 -3.991,-1.183 -6.644,-1.361c-0.645,-0.045 -1.316,-0.063 -2.002,-0.063c-0.686,0 -1.358,0.018 -2.002,0.063c-2.639,0.171 -4.9,0.678 -6.607,1.342c-1.225,0.475 -2.171,1.025 -2.786,1.596l-0.226,0.506l-0.152,-0.114l-0.428,-0.316l-0.461,-0.342c-0.357,-0.267 -0.56,-0.678 -0.547,-1.108c0.238,-6.236 3.725,-14.643 13.209,-14.643c9.486,0 12.965,8.407 13.201,14.643Z" style="fill:#c72026;fill-rule:nonzero;"/><path d="M50.617,19.483c0.022,0.43 -0.18,0.841 -0.545,1.108l-0.426,0.316l-0.456,0.342l-0.155,0.114l-0.23,-0.506c-0.602,-0.565 -1.539,-1.115 -2.743,-1.577c-1.723,-0.676 -3.991,-1.183 -6.644,-1.361c-0.645,-0.045 -1.316,-0.063 -2.002,-0.063l0,-13.016c9.486,0 12.965,8.407 13.201,14.643Z" style="fill:#db1f26;fill-rule:nonzero;"/><path d="M40.654,11.417c0,1.619 -1.448,2.929 -3.238,2.929c-1.789,0 -3.239,-1.31 -3.239,-2.929c0,-1.619 1.45,-2.928 3.239,-2.928c1.79,0 3.238,1.309 3.238,2.928Z" style="fill:#fff;fill-rule:nonzero;"/><path d="M49.932,25.212c0,0 -0.608,-0.271 -1.623,-0.652c-0.414,-0.153 -0.896,-0.323 -1.436,-0.506c-0.203,-0.064 -0.406,-0.133 -0.623,-0.196c-0.209,-0.071 -0.428,-0.14 -0.645,-0.204c-0.257,-0.081 -0.525,-0.158 -0.796,-0.227c-2.205,-0.621 -4.86,-1.158 -7.393,-1.158c-2.534,0 -5.187,0.537 -7.393,1.158c-0.273,0.069 -0.538,0.146 -0.796,0.227c-0.218,0.064 -0.434,0.133 -0.645,0.204c-0.203,0.055 -0.399,0.12 -0.588,0.182c-0.539,0.184 -1.029,0.356 -1.443,0.508c-1.035,0.385 -1.651,0.664 -1.651,0.664l0.071,-0.361l0.342,-1.867l0,-0.013l0.33,-1.722l0.07,-0.392c0.679,-0.616 1.742,-1.198 3.127,-1.691c1.736,-0.62 3.978,-1.089 6.574,-1.247c0.644,-0.045 1.316,-0.063 2.002,-0.063c0.686,0 1.357,0.018 2.002,0.063c2.618,0.158 4.871,0.633 6.608,1.26c1.371,0.488 2.423,1.07 3.094,1.678l0.07,0.392l0.343,1.83l0.328,1.772l0.071,0.361Z" style="fill:#e52425;fill-rule:nonzero;"/><path d="M49.92,25.231c-0.086,0.119 -0.262,0.154 -0.396,0.079c-3.234,-1.832 -7.307,-2.76 -12.11,-2.76c-4.802,0 -8.873,0.928 -12.107,2.76c-0.133,0.075 -0.309,0.04 -0.395,-0.079l-0.012,-0.015l-0.041,-0.213l0.137,-0.176c3.332,-1.881 7.508,-2.836 12.418,-2.836c4.921,0 9.103,0.957 12.438,2.846l0.128,0.165l-0.039,0.198l-0.021,0.031Z" style="fill:#c72026;fill-rule:nonzero;"/><path d="M39.871,11.423c0,1.23 -1.103,2.225 -2.461,2.225c-1.359,0 -2.461,-0.995 -2.461,-2.225c0,-1.228 1.102,-2.226 2.461,-2.226c1.358,0 2.461,0.998 2.461,2.226Z" style="fill:#ebece7;fill-rule:nonzero;"/><rect x="47.45" y="44.65" width="20.597" height="29.11" style="fill:#464647;fill-rule:nonzero;"/><rect x="57.748" y="44.65" width="10.299" height="29.11" style="fill:#5a5b5b;fill-rule:nonzero;"/><rect x="48.537" y="45.736" width="18.422" height="26.938" style="fill:#e6e6e6;fill-rule:nonzero;"/><rect x="57.749" y="45.737" width="9.213" height="26.935" style="fill:#f1f2f3;fill-rule:nonzero;"/><path d="M66.959,59.237l0,13.437l-6.99,0l-2.506,-2.507l-0.01,-0.011l-0.014,-0.014l-0.011,-0.01l0.623,-0.99l1.697,-2.697l7.211,-7.208Z" style="fill:#dddcdc;fill-rule:nonzero;"/><rect x="53.652" y="43.654" width="8.193" height="3.167" style="fill:#1a5a78;fill-rule:nonzero;"/><path d="M54.512,47.728l-3.983,0l0,3.984l3.983,0l0,-3.984Zm-0.725,0.723l0,2.536l-2.535,0l0,-2.536l2.535,0Z" style="fill:#c8c8c8;fill-rule:nonzero;"/><path d="M54.512,54.006l-3.983,0l0,3.983l3.983,0l0,-3.983Zm-0.725,0.724l0,2.534l-2.535,0l0,-2.534l2.535,0Z" style="fill:#c8c8c8;fill-rule:nonzero;"/><path d="M54.512,60.284l-3.983,0l0,3.983l3.983,0l0,-3.983Zm-0.725,0.723l0,2.535l-2.535,0l0,-2.535l2.535,0Z" style="fill:#c8c8c8;fill-rule:nonzero;"/><path d="M54.512,66.56l-3.983,0l0,3.985l3.983,0l0,-3.985Zm-0.725,0.725l0,2.535l-2.535,0l0,-2.535l2.535,0Z" style="fill:#c8c8c8;fill-rule:nonzero;"/><rect x="56.279" y="47.728" width="8.721" height="1.073" style="fill:#c8c8c8;fill-rule:nonzero;"/><rect x="56.279" y="50.64" width="8.721" height="1.072" style="fill:#c8c8c8;fill-rule:nonzero;"/><rect x="56.279" y="54.006" width="8.721" height="1.071" style="fill:#c8c8c8;fill-rule:nonzero;"/><rect x="56.279" y="56.917" width="8.721" height="1.072" style="fill:#c8c8c8;fill-rule:nonzero;"/><rect x="56.279" y="60.284" width="8.721" height="1.071" style="fill:#c8c8c8;fill-rule:nonzero;"/><rect x="56.279" y="63.196" width="8.721" height="1.071" style="fill:#c8c8c8;fill-rule:nonzero;"/><rect x="56.279" y="66.56" width="8.721" height="1.072" style="fill:#c8c8c8;fill-rule:nonzero;"/><rect x="56.279" y="69.473" width="8.721" height="1.072" style="fill:#c8c8c8;fill-rule:nonzero;"/><path d="M74.385,54.602l-4.383,4.382l-8.855,8.857l-0.383,-0.383l-0.627,-0.627l-0.004,0l-0.385,-0.386l8.859,-8.857l4.384,-4.382l0.384,0.385l0.626,0.627l0.384,0.384Z" style="fill:#c72026;fill-rule:nonzero;"/><path d="M73.999,54.218l-13.235,13.238l-0.63,-0.625l13.239,-13.242l0.626,0.629Z" style="fill:#db1f26;fill-rule:nonzero;"/><path d="M61.147,67.841l-2.698,1.703l-0.986,0.623l-0.098,0.063l0.063,-0.098l0.623,-0.99l1.697,-2.697l0.385,0.386l0.004,0l0.627,0.627l0.383,0.383Z" style="fill:#fbe1b4;fill-rule:nonzero;"/><path d="M60.134,66.831l-2.77,3.396l3.4,-2.771l-0.63,-0.625Z" style="fill:#faf1c9;fill-rule:nonzero;"/><path d="M58.449,69.544l-0.986,0.623l-0.098,0.063l0.063,-0.098l0.623,-0.99l0.107,0.113l0.183,0.181l0.108,0.108Z" style="fill:#c72026;fill-rule:nonzero;"/><rect x="57.749" y="43.654" width="4.096" height="3.167" style="fill:#0a7998;fill-rule:nonzero;"/></g></svg>